<?xml version="1.0" encoding="UTF-8"?>
<!--Generator: Apple Native CoreSVG 341-->
<!DOCTYPE svg
PUBLIC "-//W3C//DTD SVG 1.1//EN"
       "http://www.w3.org/Graphics/SVG/1.1/DTD/svg11.dtd">
<svg version="1.1" xmlns="http://www.w3.org/2000/svg" xmlns:xlink="http://www.w3.org/1999/xlink" viewBox="0 0 16.4311 17.5643">
 <g>
  <rect height="17.5643" opacity="0" width="16.4311" x="0" y="0"/>
  <path d="M1.66261 17.5539L14.7584 17.5539C15.8043 17.5539 16.4311 17.0639 16.4311 16.2586C16.4311 13.7375 13.2787 10.259 8.21154 10.259C3.15472 10.259 0.000181382 13.7375 0.000181382 16.2586C0.000181382 17.0639 0.629162 17.5539 1.66261 17.5539ZM8.21576 8.51233C10.3176 8.51233 12.1239 6.63916 12.1239 4.19702C12.1239 1.79267 10.3113-1.77636e-15 8.21576-1.77636e-15C6.13056-1.77636e-15 4.3159 1.83407 4.3159 4.21772C4.3159 6.63916 6.12423 8.51233 8.21576 8.51233Z" fill="#c09a9c"/>
 </g>
</svg>
