<?xml version="1.0" encoding="UTF-8"?>
<!--Generator: Apple Native CoreSVG 341-->
<!DOCTYPE svg
PUBLIC "-//W3C//DTD SVG 1.1//EN"
       "http://www.w3.org/Graphics/SVG/1.1/DTD/svg11.dtd">
<svg version="1.1" xmlns="http://www.w3.org/2000/svg" xmlns:xlink="http://www.w3.org/1999/xlink" viewBox="0 0 23.1999 23.4851">
 <g>
  <rect height="23.4851" opacity="0" width="23.1999" x="0" y="0"/>
  <path d="M18.3697 17.3444L19.406 17.3925C19.7152 17.4009 20.0449 17.6084 20.2213 17.9381L21.9962 21.1896C22.154 21.5007 22.1954 21.729 22.0105 21.9138L20.8722 23.0625C20.677 23.2577 20.4405 23.2123 20.1437 23.0606L16.8779 21.2775C16.55 21.1052 16.3365 20.7651 16.3302 20.4662L16.2799 19.4237L11.9188 15.0626C12.4547 14.3839 13.0856 13.6388 13.8377 12.8162ZM6.47558 2.08453L12.308 7.93454C12.3629 8.08904 12.4267 8.24114 12.4972 8.39088C10.0679 10.7902 8.21401 12.2449 6.73407 13.2352L1.02432 7.5151C-0.336744 6.1458-0.336544 4.68637 0.99577 3.35193L2.29172 2.056C3.64052 0.717549 5.10416 0.71312 6.47558 2.08453ZM2.98782 5.33151C2.84059 5.48908 2.82603 5.73599 2.98782 5.88744L6.85915 9.74843C7.02094 9.89985 7.26574 9.89774 7.41717 9.74631C7.56862 9.59486 7.57685 9.36252 7.41506 9.21109L3.5355 5.33151C3.39652 5.19465 3.14136 5.18008 2.98782 5.33151ZM4.27953 4.06051C4.11774 4.21193 4.12808 4.44428 4.27953 4.59573L8.14052 8.48775C8.29196 8.63919 8.55745 8.61637 8.68608 8.48775C8.84787 8.3135 8.84787 8.07081 8.69642 7.92149L4.8251 4.06051C4.6633 3.90083 4.42061 3.91117 4.27953 4.06051Z" fill="#c09a9c"/>
  <path d="M1.52044 22.2087C3.22278 23.8964 5.50422 23.9171 7.16094 22.2315C9.26261 20.1091 8.93583 17.7393 15.3403 11.2319C17.4268 12.2203 19.9579 11.8881 21.6273 10.2063C23.396 8.45832 23.6911 5.68324 22.3861 3.43535L19.7394 6.09655C19.4751 6.35883 19.1321 6.37743 18.8451 6.10077L17.6615 4.89649C17.3745 4.59914 17.3517 4.26441 17.6139 4.00213L20.2731 1.35336C18.048 0.0463586 15.2915 0.341413 13.5332 2.11006C11.8492 3.78364 11.5191 6.31472 12.4972 8.39088C6.00226 14.8057 3.62002 14.4686 1.49764 16.5599C-0.185904 18.2352-0.165202 20.5084 1.52044 22.2087ZM14.5817 9.14737C12.8454 7.40686 12.773 4.66105 14.4368 3.0158C15.3785 2.07621 16.713 1.68991 17.9849 1.89221L16.5758 3.31374C15.8532 4.02594 15.8801 4.93689 16.6191 5.67803L18.0718 7.10791C18.7943 7.8408 19.7156 7.84692 20.4071 7.1658L21.839 5.71319C22.0578 7.01607 21.6715 8.35269 20.7133 9.30054C19.0659 10.954 16.3305 10.8733 14.5817 9.14737ZM2.49039 21.2408C1.37254 20.1084 1.38499 18.6435 2.46546 17.5588C4.82491 15.2243 6.22997 16.2212 13.1461 9.4544C13.3102 9.66642 13.4806 9.86599 13.6656 10.051C13.8527 10.2485 14.0648 10.4314 14.2768 10.5851C7.5204 17.5116 8.51726 18.9166 6.17027 21.2657C5.0877 22.3462 3.62073 22.3587 2.49039 21.2408ZM4.30648 20.6559C4.97283 20.6559 5.5167 20.1224 5.5167 19.4518C5.5167 18.7833 4.97283 18.2477 4.30648 18.2477C3.64623 18.2477 3.10027 18.7833 3.10027 19.4518C3.10027 20.1224 3.64623 20.6559 4.30648 20.6559Z" fill="white" fill-opacity="0.85"/>
 </g>
</svg>
