<?xml version="1.0" encoding="UTF-8"?> <!--Generator: Apple
Native CoreSVG 341-->
<!DOCTYPE svg PUBLIC "-//W3C//DTD SVG 1.1//EN" "http://www.w3.org/Graphics/SVG/1.1/DTD/svg11.dtd">
<svg version="1.1" xmlns="http://www.w3.org/2000/svg" xmlns:xlink="http://www.w3.org/1999/xlink"
    viewBox="0 0 23.3218 20.5445">
    <g>
        <rect height="20.5445" opacity="0" width="23.3218" x="0" y="0" />
        <path
            d="M8.83405 19.5168L14.4884 19.5168L14.4884 13.2152C14.4884 12.767 14.2041 12.4745 13.7477 12.4745L9.57477 12.4745C9.12869 12.4745 8.83405 12.767 8.83405 13.2152ZM0.84799 10.4225C1.11942 10.4225 1.34312 10.2733 1.53998 10.1096L11.313 1.9025C11.4211 1.80683 11.5499 1.76523 11.6623 1.76523C11.7725 1.76523 11.891 1.80683 11.9991 1.9025L21.7825 10.1096C21.9794 10.2733 22.203 10.4225 22.4745 10.4225C23.0069 10.4225 23.3218 10.0433 23.3218 9.64135C23.3218 9.41747 23.2225 9.1813 23.0089 9.00092L12.8324 0.460656C12.4569 0.153536 12.0585 0 11.6623 0C11.2639 0 10.8552 0.153536 10.4901 0.460656L0.313572 9.00092C0.100036 9.1813 0.000543154 9.41747 0.000543154 9.64135C0.000543154 10.0433 0.317587 10.4225 0.84799 10.4225ZM18.0065 5.23942L20.468 7.31528L20.468 2.90359C20.468 2.47649 20.1861 2.20486 19.759 2.20486L18.7156 2.20486C18.2988 2.20486 18.0065 2.47649 18.0065 2.90359ZM5.05205 20.532L18.26 20.532C19.6589 20.532 20.468 19.7393 20.468 18.3758L20.468 7.55586L18.8891 6.49466L18.8891 17.9759C18.8891 18.6164 18.5525 18.9613 17.9348 18.9613L5.3877 18.9613C4.76998 18.9613 4.42511 18.6164 4.42511 17.9759L4.42511 6.50099L2.8544 7.55586L2.8544 18.3758C2.8544 19.7414 3.66357 20.532 5.05205 20.532Z"
            fill="#c09a9c" />
    </g>
</svg>